<?xml version="1.0" encoding="iso-8859-1"?>
<!-- Generator: Adobe Illustrator 19.0.0, SVG Export Plug-In . SVG Version: 6.00 Build 0)  -->
<svg version="1.1" id="Capa_1" xmlns="http://www.w3.org/2000/svg" xmlns:xlink="http://www.w3.org/1999/xlink" x="0px" y="0px"
	 viewBox="0 0 512 512" style="enable-background:new 0 0 512 512; fill: #161616;" xml:space="preserve">
<g>
	<g>
		<path d="M488.468,296.597H55.597C24.94,296.597,0,321.537,0,352.193s24.94,55.597,55.597,55.597h432.871
			c12.976,0,23.532-10.557,23.532-23.532v-64.129C512,307.153,501.443,296.597,488.468,296.597z M128.259,392.789H55.597
			C33.211,392.791,15,374.579,15,352.193c0-22.385,18.211-40.597,40.597-40.597h72.662v8.458c0,0.276-0.066,0.486-0.111,0.576
			c-10.12,7.554-15.922,19.052-15.922,31.562s5.802,24.008,15.922,31.562c0.045,0.09,0.111,0.3,0.111,0.576V392.789z
			 M166.415,371.769c-3.814,2.833-6.092,7.529-6.092,12.562v8.459h-17.064v-8.459c0-5.032-2.277-9.728-6.091-12.562
			c-6.318-4.694-9.942-11.83-9.942-19.577s3.624-14.883,9.942-19.577c3.814-2.833,6.091-7.529,6.091-12.562v-8.458h17.064v8.458
			c0,5.035,2.277,9.731,6.091,12.563c6.318,4.694,9.941,11.83,9.941,19.577S172.731,367.076,166.415,371.769z M497,384.258
			L497,384.258c0,4.705-3.828,8.532-8.532,8.532h-8.532v-40.598c0-4.142-3.358-7.5-7.5-7.5c-4.142,0-7.5,3.358-7.5,7.5v40.598
			H175.323v-8.459c0-0.276,0.065-0.485,0.11-0.576c10.12-7.554,15.922-19.053,15.922-31.563c0-12.51-5.801-24.008-15.922-31.563
			c-0.045-0.09-0.11-0.299-0.11-0.576v-8.458h289.613v8.533c0,4.142,3.358,7.5,7.5,7.5c4.142,0,7.5-3.358,7.5-7.5v-8.533h8.532
			c4.705,0,8.532,3.828,8.532,8.532V384.258z"/>
	</g>
</g>
<g>
	<g>
		<path d="M337.099,126.251c-0.965-4.752-1.454-9.644-1.454-14.541c0-4.142-3.358-7.5-7.5-7.5c-4.142,0-7.5,3.358-7.5,7.5
			c0,5.896,0.59,11.793,1.754,17.525c0.722,3.556,3.849,6.009,7.342,6.009c0.495,0,0.997-0.049,1.5-0.151
			C335.301,134.269,337.923,130.31,337.099,126.251z"/>
	</g>
</g>
<g>
	<g>
		<path d="M408.305,184.372c-23.072,0-44.263-10.596-58.139-29.07c-2.487-3.312-7.19-3.98-10.501-1.493
			c-3.311,2.487-3.979,7.189-1.492,10.501c16.736,22.282,42.298,35.062,70.133,35.062c40.065,0,72.661,32.596,72.661,72.661
			c0,4.142,3.358,7.5,7.5,7.5c4.142,0,7.5-3.358,7.5-7.5C495.967,223.697,456.642,184.372,408.305,184.372z"/>
	</g>
</g>
<g>
	<g>
		<path d="M493.813,188.303c-5.22-5.33-10.963-10.196-17.071-14.465c-3.394-2.372-8.071-1.545-10.444,1.851
			c-2.372,3.395-1.544,8.071,1.851,10.444c5.347,3.737,10.376,7.999,14.947,12.666c1.469,1.5,3.413,2.252,5.359,2.252
			c1.893,0,3.788-0.712,5.248-2.142C496.662,196.011,496.711,191.262,493.813,188.303z"/>
	</g>
</g>
<g>
	<g>
		<path d="M442.545,157.294c-11.073-3.309-22.592-4.987-34.238-4.987c-22.385,0-40.597-18.212-40.597-40.597
			c0-4.142-3.358-7.5-7.5-7.5c-4.142,0-7.5,3.358-7.5,7.5c-0.001,30.656,24.94,55.597,55.597,55.597
			c10.19,0,20.265,1.467,29.942,4.359c0.717,0.214,1.439,0.316,2.151,0.316c3.229,0,6.211-2.102,7.183-5.354
			C448.769,162.659,446.513,158.481,442.545,157.294z"/>
	</g>
</g>
<g>
</g>
<g>
</g>
<g>
</g>
<g>
</g>
<g>
</g>
<g>
</g>
<g>
</g>
<g>
</g>
<g>
</g>
<g>
</g>
<g>
</g>
<g>
</g>
<g>
</g>
<g>
</g>
<g>
</g>
</svg>
